<svg width="12" height="7" viewBox="0 0 12 7" fill="none" xmlns="http://www.w3.org/2000/svg">
<path d="M5.9998 6.57502C5.86647 6.57502 5.74147 6.55419 5.6248 6.51252C5.50814 6.47086 5.3998 6.40002 5.2998 6.30002L0.699805 1.70002C0.516471 1.51669 0.424805 1.28336 0.424805 1.00002C0.424805 0.716691 0.516471 0.483358 0.699805 0.300024C0.883138 0.116691 1.11647 0.0250244 1.3998 0.0250244C1.68314 0.0250244 1.91647 0.116691 2.0998 0.300024L5.9998 4.20002L9.89981 0.300024C10.0831 0.116691 10.3165 0.0250244 10.5998 0.0250244C10.8831 0.0250244 11.1165 0.116691 11.2998 0.300024C11.4831 0.483358 11.5748 0.716691 11.5748 1.00002C11.5748 1.28336 11.4831 1.51669 11.2998 1.70002L6.6998 6.30002C6.5998 6.40002 6.49147 6.47086 6.3748 6.51252C6.25814 6.55419 6.13314 6.57502 5.9998 6.57502Z" fill="black"/>
</svg>
