<svg width="46" height="39" viewBox="0 0 46 39" fill="none" xmlns="http://www.w3.org/2000/svg">
<path d="M2.16732 13.3501V5.01676C2.16732 3.87093 2.5753 2.89003 3.39128 2.07406C4.20725 1.25808 5.18815 0.850098 6.33398 0.850098H39.6673C40.8132 0.850098 41.7941 1.25808 42.61 2.07406C43.426 2.89003 43.834 3.87093 43.834 5.01676V13.3501H39.6673V5.01676H6.33398V13.3501H2.16732ZM6.33398 32.1001C5.18815 32.1001 4.20725 31.6921 3.39128 30.8761C2.5753 30.0602 2.16732 29.0793 2.16732 27.9334V17.5168H6.33398V27.9334H39.6673V17.5168H43.834V27.9334C43.834 29.0793 43.426 30.0602 42.61 30.8761C41.7941 31.6921 40.8132 32.1001 39.6673 32.1001H6.33398ZM0.0839844 38.3501V34.1834H45.9173V38.3501H0.0839844ZM2.16732 17.5168V13.3501H14.6673C15.0493 13.3501 15.4138 13.4543 15.7611 13.6626C16.1083 13.8709 16.3687 14.1487 16.5423 14.4959L18.9902 19.3397L25.3965 8.14176C25.5701 7.82926 25.8132 7.57753 26.1257 7.38656C26.4382 7.19558 26.7854 7.1001 27.1673 7.1001C27.5493 7.1001 27.9138 7.19558 28.2611 7.38656C28.6083 7.57753 28.8687 7.86399 29.0423 8.24593L31.5944 13.3501H43.834V17.5168H30.2923C29.9104 17.5168 29.5458 17.4213 29.1986 17.2303C28.8513 17.0393 28.5909 16.7529 28.4173 16.3709L27.0632 13.6105L20.6569 24.8084C20.4833 25.1557 20.2229 25.4161 19.8757 25.5897C19.5284 25.7633 19.1638 25.8501 18.7819 25.8501C18.4 25.8501 18.0441 25.7459 17.7142 25.5376C17.3843 25.3293 17.1326 25.0515 16.959 24.7043L13.3652 17.5168H2.16732Z" fill="#1C1B1F"/>
</svg>
