<svg width="42" height="41" viewBox="0 0 42 41" fill="none" xmlns="http://www.w3.org/2000/svg">
<path d="M4.33366 40.3504C3.18783 40.3504 2.20692 39.9424 1.39095 39.1265C0.574978 38.3105 0.166992 37.3296 0.166992 36.1838V13.2671C0.166992 12.1213 0.574978 11.1404 1.39095 10.3244C2.20692 9.50841 3.18783 9.10042 4.33366 9.10042H12.667V4.93376C12.667 3.78792 13.075 2.80702 13.891 1.99105C14.7069 1.17508 15.6878 0.76709 16.8337 0.76709H25.167C26.3128 0.76709 27.2937 1.17508 28.1097 1.99105C28.9257 2.80702 29.3337 3.78792 29.3337 4.93376V9.10042H37.667C38.8128 9.10042 39.7937 9.50841 40.6097 10.3244C41.4257 11.1404 41.8337 12.1213 41.8337 13.2671V36.1838C41.8337 37.3296 41.4257 38.3105 40.6097 39.1265C39.7937 39.9424 38.8128 40.3504 37.667 40.3504H4.33366ZM16.8337 9.10042H25.167V4.93376H16.8337V9.10042ZM37.667 27.8504H27.2503V32.0171H14.7503V27.8504H4.33366V36.1838H37.667V27.8504ZM18.917 27.8504H23.0837V23.6838H18.917V27.8504ZM4.33366 23.6838H14.7503V19.5171H27.2503V23.6838H37.667V13.2671H4.33366V23.6838Z" fill="#1C1B1F"/>
</svg>
