<svg width="38" height="39" viewBox="0 0 38 39" fill="none" xmlns="http://www.w3.org/2000/svg">
<path d="M10.6667 32.1001H13.7917V27.9334H17.9583V24.8084H13.7917V20.6418H10.6667V24.8084H6.5V27.9334H10.6667V32.1001ZM21.0833 30.5376H31.5V27.4126H21.0833V30.5376ZM21.0833 25.3293H31.5V22.2043H21.0833V25.3293ZM23.375 17.4126L26.2917 14.4959L29.2083 17.4126L31.3958 15.2251L28.4792 12.2043L31.3958 9.2876L29.2083 7.1001L26.2917 10.0168L23.375 7.1001L21.1875 9.2876L24.1042 12.2043L21.1875 15.2251L23.375 17.4126ZM7.02083 13.7668H17.4375V10.6418H7.02083V13.7668ZM4.41667 38.3501C3.27083 38.3501 2.28993 37.9421 1.47396 37.1261C0.657986 36.3102 0.25 35.3293 0.25 34.1834V5.01676C0.25 3.87093 0.657986 2.89003 1.47396 2.07406C2.28993 1.25808 3.27083 0.850098 4.41667 0.850098H33.5833C34.7292 0.850098 35.7101 1.25808 36.526 2.07406C37.342 2.89003 37.75 3.87093 37.75 5.01676V34.1834C37.75 35.3293 37.342 36.3102 36.526 37.1261C35.7101 37.9421 34.7292 38.3501 33.5833 38.3501H4.41667ZM4.41667 34.1834H33.5833V5.01676H4.41667V34.1834Z" fill="#1C1B1F"/>
</svg>
