<svg width="38" height="38" viewBox="0 0 38 38" fill="none" xmlns="http://www.w3.org/2000/svg">
<path d="M9.41667 27.4334L15.7708 21.0793L19.9375 25.2459L27.3333 17.9022V21.1834H31.5V10.7668H21.0833V14.9334H24.3646L19.9375 19.3605L15.7708 15.1938L6.5 24.5168L9.41667 27.4334ZM4.41667 37.8501C3.27083 37.8501 2.28993 37.4421 1.47396 36.6261C0.657986 35.8102 0.25 34.8293 0.25 33.6834V4.51676C0.25 3.37093 0.657986 2.39003 1.47396 1.57406C2.28993 0.758084 3.27083 0.350098 4.41667 0.350098H33.5833C34.7292 0.350098 35.7101 0.758084 36.526 1.57406C37.342 2.39003 37.75 3.37093 37.75 4.51676V33.6834C37.75 34.8293 37.342 35.8102 36.526 36.6261C35.7101 37.4421 34.7292 37.8501 33.5833 37.8501H4.41667ZM4.41667 33.6834H33.5833V4.51676H4.41667V33.6834Z" fill="#1C1B1F"/>
</svg>
