<svg width="42" height="42" viewBox="0 0 42 42" fill="none" xmlns="http://www.w3.org/2000/svg">
<path d="M6.41602 41.9338C4.6799 41.9338 3.20421 41.3261 1.98893 40.1108C0.773654 38.8956 0.166016 37.4199 0.166016 35.6838C0.166016 34.3296 0.556641 33.1143 1.33789 32.0379C2.11914 30.9615 3.1174 30.215 4.33268 29.7983V25.2671C4.33268 23.531 4.94032 22.0553 6.1556 20.84C7.37088 19.6247 8.84657 19.0171 10.5827 19.0171H18.916V12.4025C17.7007 11.9858 16.7025 11.2393 15.9212 10.1629C15.14 9.08653 14.7493 7.87126 14.7493 6.51709C14.7493 4.78098 15.357 3.30528 16.5723 2.09001C17.7875 0.874729 19.2632 0.26709 20.9993 0.26709C22.7355 0.26709 24.2112 0.874729 25.4264 2.09001C26.6417 3.30528 27.2493 4.78098 27.2493 6.51709C27.2493 7.87126 26.8587 9.08653 26.0775 10.1629C25.2962 11.2393 24.298 11.9858 23.0827 12.4025V19.0171H31.416C33.1521 19.0171 34.6278 19.6247 35.8431 20.84C37.0584 22.0553 37.666 23.531 37.666 25.2671V29.7983C38.8813 30.215 39.8796 30.9615 40.6608 32.0379C41.4421 33.1143 41.8327 34.3296 41.8327 35.6838C41.8327 37.4199 41.225 38.8956 40.0098 40.1108C38.7945 41.3261 37.3188 41.9338 35.5827 41.9338C33.8466 41.9338 32.3709 41.3261 31.1556 40.1108C29.9403 38.8956 29.3327 37.4199 29.3327 35.6838C29.3327 34.3296 29.7233 33.1143 30.5046 32.0379C31.2858 30.9615 32.2841 30.215 33.4993 29.7983V25.2671C33.4993 24.6768 33.2997 24.182 32.9004 23.7827C32.5011 23.3834 32.0063 23.1838 31.416 23.1838H23.0827V29.7983C24.298 30.215 25.2962 30.9615 26.0775 32.0379C26.8587 33.1143 27.2493 34.3296 27.2493 35.6838C27.2493 37.4199 26.6417 38.8956 25.4264 40.1108C24.2112 41.3261 22.7355 41.9338 20.9993 41.9338C19.2632 41.9338 17.7875 41.3261 16.5723 40.1108C15.357 38.8956 14.7493 37.4199 14.7493 35.6838C14.7493 34.3296 15.14 33.1143 15.9212 32.0379C16.7025 30.9615 17.7007 30.215 18.916 29.7983V23.1838H10.5827C9.9924 23.1838 9.49761 23.3834 9.09831 23.7827C8.699 24.182 8.49935 24.6768 8.49935 25.2671V29.7983C9.71463 30.215 10.7129 30.9615 11.4941 32.0379C12.2754 33.1143 12.666 34.3296 12.666 35.6838C12.666 37.4199 12.0584 38.8956 10.8431 40.1108C9.62782 41.3261 8.15213 41.9338 6.41602 41.9338ZM6.41602 37.7671C7.00629 37.7671 7.50108 37.5674 7.90039 37.1681C8.2997 36.7688 8.49935 36.274 8.49935 35.6838C8.49935 35.0935 8.2997 34.5987 7.90039 34.1994C7.50108 33.8001 7.00629 33.6004 6.41602 33.6004C5.82574 33.6004 5.33095 33.8001 4.93164 34.1994C4.53234 34.5987 4.33268 35.0935 4.33268 35.6838C4.33268 36.274 4.53234 36.7688 4.93164 37.1681C5.33095 37.5674 5.82574 37.7671 6.41602 37.7671ZM20.9993 37.7671C21.5896 37.7671 22.0844 37.5674 22.4837 37.1681C22.883 36.7688 23.0827 36.274 23.0827 35.6838C23.0827 35.0935 22.883 34.5987 22.4837 34.1994C22.0844 33.8001 21.5896 33.6004 20.9993 33.6004C20.4091 33.6004 19.9143 33.8001 19.515 34.1994C19.1157 34.5987 18.916 35.0935 18.916 35.6838C18.916 36.274 19.1157 36.7688 19.515 37.1681C19.9143 37.5674 20.4091 37.7671 20.9993 37.7671ZM35.5827 37.7671C36.173 37.7671 36.6678 37.5674 37.0671 37.1681C37.4664 36.7688 37.666 36.274 37.666 35.6838C37.666 35.0935 37.4664 34.5987 37.0671 34.1994C36.6678 33.8001 36.173 33.6004 35.5827 33.6004C34.9924 33.6004 34.4976 33.8001 34.0983 34.1994C33.699 34.5987 33.4993 35.0935 33.4993 35.6838C33.4993 36.274 33.699 36.7688 34.0983 37.1681C34.4976 37.5674 34.9924 37.7671 35.5827 37.7671ZM20.9993 8.60042C21.5896 8.60042 22.0844 8.40077 22.4837 8.00146C22.883 7.60216 23.0827 7.10737 23.0827 6.51709C23.0827 5.92681 22.883 5.43202 22.4837 5.03271C22.0844 4.63341 21.5896 4.43376 20.9993 4.43376C20.4091 4.43376 19.9143 4.63341 19.515 5.03271C19.1157 5.43202 18.916 5.92681 18.916 6.51709C18.916 7.10737 19.1157 7.60216 19.515 8.00146C19.9143 8.40077 20.4091 8.60042 20.9993 8.60042Z" fill="#1C1B1F"/>
</svg>
