<svg width="48" height="47" viewBox="0 0 48 47" fill="none" xmlns="http://www.w3.org/2000/svg">
<g clip-path="url(#clip0_149_10869)">
<g clip-path="url(#clip1_149_10869)">
<path fill-rule="evenodd" clip-rule="evenodd" d="M33 20.1996H24H15V18.6796V17.1596H24H33V18.6796V20.1996ZM27 34.6376C27 32.9576 25.656 31.5956 24 31.5956C22.342 31.5956 21 32.9576 21 34.6376C21 36.3156 22.342 37.6776 24 37.6776C25.656 37.6776 27 36.3156 27 34.6376ZM24 43.7596C34.58 43.7596 43.354 35.8316 44.79 25.5156H41.752C40.33 34.1456 32.92 40.7176 24 40.7176C20.686 40.7176 18.004 37.9956 18.004 34.6376C18.004 31.2796 20.686 28.5596 24 28.5596C27.314 28.5596 30 31.1996 30 34.6376C30 35.3076 29.866 35.9416 29.668 36.5456C30.866 36.0496 31.978 35.3936 33 34.6176C33 29.5996 28.968 25.5176 24 25.5176C19.03 25.5176 15 29.5996 15 34.6376C15 39.6736 19.03 43.7596 24 43.7596ZM3.238 25.5156C4.19 32.2376 8.216 37.9436 13.85 41.1036C12.684 39.2296 12 37.0176 12 34.6376V25.5156H3.238ZM39 22.4756H48C48 35.9096 37.254 46.7996 24 46.7996C10.746 46.7996 0 35.9096 0 22.4756H15V26.6136C17.198 24.0816 20.41 22.4756 24 22.4756C29.724 22.4756 34.504 26.5396 35.702 31.9756C37.764 29.3736 39 26.0716 39 22.4756ZM31.5 5.75156C34.812 5.75156 37.5 8.47356 37.5 11.8316V14.8736H34.5V11.8316C34.5 10.1536 33.156 8.79156 31.5 8.79156C31.232 8.79156 30.976 8.83956 30.728 8.90556C31.204 9.77756 31.5 10.7656 31.5 11.8316V14.8736H28.5V11.8316C28.5 10.1536 27.156 8.79156 25.5 8.79156V14.8736H22.5V8.79156C20.842 8.79156 19.5 10.1536 19.5 11.8316V14.8736H16.5V11.8316C16.5 10.7656 16.794 9.77756 17.272 8.90756C17.024 8.83956 16.768 8.79156 16.5 8.79156C14.842 8.79156 13.5 10.1536 13.5 11.8316V14.8736H10.5V11.8316C10.5 8.47356 13.186 5.75156 16.5 5.75156C17.602 5.75156 18.63 6.05956 19.516 6.58556C20.398 6.06956 21.408 5.75156 22.5 5.75156C23.01 5.75156 23.496 5.83756 23.968 5.95756C24.458 5.82756 24.97 5.75156 25.5 5.75156C26.598 5.75156 27.612 6.07156 28.498 6.59356C29.384 6.07156 30.402 5.75156 31.5 5.75156ZM24.654 2.23356H26.068V3.55956H24.654V4.99156H23.346V3.55956H21.932V2.23356H23.346V0.799561H24.654V2.23356Z" fill="#002E6D"/>
</g>
</g>
<defs>
<clipPath id="clip0_149_10869">
<rect width="48" height="46" fill="white" transform="translate(0 0.800049)"/>
</clipPath>
<clipPath id="clip1_149_10869">
<rect width="48" height="46" fill="white" transform="translate(0 0.800049)"/>
</clipPath>
</defs>
</svg>
